# xmcd CD database file
#
# Track frame offsets:
#	150
#	17212
#	28487
#	38750
#	54660
#	70882
#	85020
#	100925
#	125067
#	130545
#	141150
#	149850
#	156252
#	164592
#	174807
#	185992
#	202837
#	218112
#	238555
#
# Disc length: 3375 seconds
#
# Revision: 0
# Processed by: cddbd v1.5.1PL0 Copyright (c) Steve Scherf et al.
# Submitted via: CDex 1.51
#
DISCID=1c0d2d13
DTITLE=溝口肇 - 天国のKiss
DYEAR=1999
DGENRE=New Age
TTITLE0=天国のKiss Main Theme
TTITLE1=光の階段
TTITLE2=朝日の君
TTITLE3=再生と分裂
TTITLE4=回帰
TTITLE5=再び逢える時に
TTITLE6=Morning Songs
TTITLE7=Single
TTITLE8=Touch And Safe
TTITLE9=流れのかなたに
TTITLE10=ジャンプ!
TTITLE11=消えゆく過去
TTITLE12=Dark Side Sound
TTITLE13=天国のKiss Main Theme(Guitar Ver.)
TTITLE14=Day By Day
TTITLE15=AS TIME GOES BY(Strings Ver.)
TTITLE16=遠い空
TTITLE17=何でもない
TTITLE18=天国のKiss Main Theme(Cello Ver.)
EXTD=YEAR: 1999
EXTT0=
EXTT1=
EXTT2=
EXTT3=
EXTT4=
EXTT5=
EXTT6=
EXTT7=
EXTT8=
EXTT9=
EXTT10=
EXTT11=
EXTT12=
EXTT13=
EXTT14=
EXTT15=
EXTT16=
EXTT17=
EXTT18=
PLAYORDER=
